<?xml version="1.0" ?><!DOCTYPE svg  PUBLIC '-//W3C//DTD SVG 1.1//EN'  'http://www.w3.org/Graphics/SVG/1.1/DTD/svg11.dtd'><svg enable-background="new 0 0 512 512" height="512px" id="Layer_1" version="1.1" viewBox="0 0 512 512" width="512px" xml:space="preserve" xmlns="http://www.w3.org/2000/svg" xmlns:xlink="http://www.w3.org/1999/xlink"><g><g><path d="M512,256c0,141.385-114.614,256-255.997,256c-20.813,0-41.047-2.485-60.418-7.18     C83.351,477.673,0,376.571,0,256C0,114.616,114.614,0,256.003,0c115,0,212.291,75.827,244.596,180.219     c0.034,0.113,0.067,0.22,0.1,0.333c0.106,0.332,0.206,0.665,0.306,0.997C508.157,205.107,512,230.102,512,256z" fill="#454D4D"/><path d="M512,256c0,141.385-114.614,256-255.997,256c-20.813,0-41.047-2.349-60.418-7.043L36.713,345.35h-1.189     v-169h55v1.211l12.663,12.789h26.177l0.133,1.25l4.188,3.284c14.458-10.064,28.431-18.021,41.173-23.672     c0.545-0.751,1.21-1.413,1.981-1.992c0.412-0.099,0.804-0.21,1.21-0.309c0.512-2.673,1.795-4.942,3.915-6.518     c44.824-10.809,53.877-39.216,87.726-39.229c10.057-0.007,62.717,15.608,95.216,46.087c2.347,2.12,4.593,4.32,6.721,6.587     c0.904,0.891,1.788,1.781,2.652,2.692c1.642,1.535,3.237,3.111,4.772,4.727c1.343,1.256,2.659,2.433,3.929,3.741l0.678-5.649     h44.866v-14h60v1.569l12.708,12.63C508.385,205.107,512,230.102,512,256z" opacity="0.2"/><g><g><path d="M357.743,308.583c-9.181,5.836-24.2,0.426-33.313-14.39c17.083,37.36-16.008,53.369-34.68,25.091       c9.677,27.613-9.215,43.775-30.736,35.753c-2.185-0.82-4.403-1.876-6.622-3.208c-12.049-0.102-23.075-1.212-33.519-3.241       c-0.375-0.054-0.75-0.138-1.125-0.208c-14.696-2.934-28.315-7.609-42.19-13.601c-0.408-0.17-0.834-0.342-1.245-0.528       c-9.882-4.301-19.916-9.267-30.566-14.729c-3.208-1.638-6.469-3.328-9.797-5.051l-12.288-110.986       c18.704-14.389,36.95-25.088,53.196-32.29c4.097-1.827,8.057-3.432,11.861-4.814c0.854-0.289,1.674-0.579,2.492-0.869       c3.602-1.245,7.067-2.288,10.361-3.123c64.683-0.58,113.749,46.233,161.142,104.056       C369.367,289.86,365.782,303.497,357.743,308.583z" fill="#E8A48E"/><path d="M360.315,306.495c8.312-45.858-109.323-87.003-95.738-118.063       c-64.46,49.63-101.546-1.416-89.72-17.237c0.547-0.752,1.214-1.4,1.981-1.98c3.5-0.853,6.792-1.791,9.88-2.834       c0.854-0.289,1.674-0.579,2.492-0.869c3.602-1.245,7.067-2.288,10.361-3.123c64.683-0.58,113.749,46.233,161.142,104.056       C369.367,289.86,368.354,301.41,360.315,306.495z" fill="#CF907F" opacity="0.6"/><path d="M181.964,162.396c44.822-10.807,53.879-39.203,87.728-39.221       c14.748-0.008,121.199,33.617,121.173,98.45c-7.803,38.162-11.253,73.62-28.413,82.04       c11.946-46.559-106.528-90.563-92.76-122.062C202.241,233.55,164.756,175.201,181.964,162.396z" fill="#E8A48E"/><polygon fill="#FFFFFF" points="430.085,312.068 367.653,312.068 383.662,181.604 430.085,181.604      "/><polygon fill="#FFFFFF" points="143.547,332.078 77.113,332.078 77.113,189.9 129.365,189.9      "/><rect fill="#002856" height="168.884" width="54.827" x="35.493" y="176.402"/><ellipse cx="113.932" cy="296.061" fill="#002856" rx="10.805" ry="10.406"/><ellipse cx="398.869" cy="280.356" fill="#8C1B06" rx="10.806" ry="10.406"/><path d="M174.313,334.251c-9.882-4.301-19.916-9.267-30.566-14.729L174.313,334.251z" fill="#CF907F" opacity="0.6"/><path d="M184.826,310.767c0,2.9-0.716,5.854-2.236,8.584l-8.277,14.9       c-9.882-4.301-19.916-9.267-30.566-14.729l9.216-16.623c4.659-8.396,15.068-11.52,23.262-6.981       C181.736,298.974,184.826,304.742,184.826,310.767z" fill="#CF907F" opacity="0.6"/><path d="M226.484,328.464c0,2.8-0.666,5.563-2.082,8.073l-6.654,11.843       c-14.696-2.934-28.315-7.609-42.19-13.601l10.976-19.525c5.051-8.96,17.611-11.45,28.056-5.58       C222.116,313.907,226.484,321.314,226.484,328.464z" fill="#CF907F" opacity="0.6"/><path d="M263.4,342.647c0,3.123-0.803,6.28-2.491,9.146l-1.895,3.243       c-2.185-0.82-4.403-1.876-6.622-3.208c-12.049-0.102-23.075-1.212-33.519-3.241l9.353-15.942       c5.172-8.805,16.656-11.655,25.685-6.365C259.987,329.848,263.4,336.196,263.4,342.647z" fill="#CF907F" opacity="0.6"/><path d="M165.344,346.301c-4.665,8.397-15.08,11.523-23.258,6.979l0,0c-8.182-4.541-11.032-15.033-6.369-23.433       l12.123-21.836c4.665-8.398,15.078-11.521,23.259-6.978l0,0c8.18,4.541,11.031,15.032,6.37,23.432L165.344,346.301z" fill="#E8A48E"/><path d="M206.189,364.954c-5.039,8.957-17.603,11.448-28.054,5.57l0,0c-10.458-5.881-14.85-17.91-9.812-26.867       l13.094-23.288c5.041-8.959,17.599-11.452,28.057-5.571l0,0c10.451,5.876,14.848,17.909,9.808,26.866L206.189,364.954z" fill="#E8A48E"/><path d="M242.361,379.806c-5.162,8.803-16.66,11.652-25.682,6.358l0,0c-9.021-5.286-12.148-16.713-6.988-25.517       l13.42-22.884c5.16-8.803,16.657-11.649,25.679-6.359l0,0c9.022,5.289,12.15,16.713,6.99,25.518L242.361,379.806z" fill="#E8A48E"/><rect fill="#8C1B06" height="164.882" width="60.029" x="427.95" y="167.516"/></g><path d="M182.92,341.415c-1.622-0.837-2.256-2.829-1.417-4.449l8.237-15.939      c1.05-2.031,2.864-3.562,5.042-4.256c2.179-0.694,4.543-0.494,6.575,0.556l8.183,4.23c4.229,2.186,5.886,7.386,3.7,11.615      l-8.238,15.939c-0.838,1.62-2.83,2.256-4.451,1.418C194.962,346.169,189.473,343.039,182.92,341.415z" fill="#FFFFFF" opacity="0.4"/><path d="M224.76,354.185c-1.55-0.8-2.247-2.53-1.557-3.863l6.78-13.122      c0.865-1.672,2.465-2.879,4.449-3.349c1.982-0.474,4.191-0.175,6.132,0.83l7.824,4.043c4.043,2.091,5.863,6.606,4.063,10.087      l-6.782,13.122c-0.69,1.333-2.503,1.767-4.053,0.965C236.194,358.885,230.929,355.921,224.76,354.185z" fill="#FFFFFF" opacity="0.4"/><path d="M150.238,321.773c-1.197-0.616-1.607-2.199-0.917-3.533l6.781-13.12      c0.863-1.673,2.288-2.97,3.958-3.604c1.669-0.633,3.451-0.556,4.95,0.22l6.037,3.119c3.119,1.613,4.189,5.743,2.391,9.225      l-6.782,13.12c-0.69,1.334-2.216,1.913-3.413,1.298C159.175,325.181,155.135,322.851,150.238,321.773z" fill="#FFFFFF" opacity="0.4"/></g></g></g></svg>