<?xml version="1.0" ?><!DOCTYPE svg  PUBLIC '-//W3C//DTD SVG 1.1//EN'  'http://www.w3.org/Graphics/SVG/1.1/DTD/svg11.dtd'><svg enable-background="new 0 0 512.001 512" height="512px" id="Layer_1" version="1.1" viewBox="0 0 512.001 512" width="512.001px" xml:space="preserve" xmlns="http://www.w3.org/2000/svg" xmlns:xlink="http://www.w3.org/1999/xlink"><g><g><path d="M512.001,256c0,24.265-3.38,47.74-9.68,69.965C471.887,433.33,373.119,512,256,512     c-16.46,0-32.538-1.564-48.128-4.535C89.498,484.965,0,380.9,0,256C0,114.61,114.61,0,256,0     C397.387,0,512.001,114.61,512.001,256z" fill="#FFEFB4"/><g><path d="M502.321,325.965C471.887,433.33,373.119,512,256,512c-16.46,0-32.538-1.564-48.128-4.535L87.553,389.58      v-25.6h60.595c13.44,0,23.885-12.16,23.885-25.601l-61.617-64.435c-6.223-4.15-10.063-11.19-10.063-19.255V145.125      c0-5.25,1.663-10.395,4.632-14.285c0.053-0.105,0-0.485,0.078-0.59c4.225-5.375,10.777-9.47,18.125-9.47h103.22      c4.837,0,9.343,2.125,13.055,4.685L398.387,224.1L502.321,325.965z" opacity="0.15"/><g><g><path d="M172.542,285.89v52.485c0,13.445-10.948,24.395-24.393,24.395H86.985v27.16h61.165        c22.245,0,41.245-14.165,48.445-33.939c2.01-5.5,3.107-11.436,3.107-17.615V285.89H172.542z" fill="#173657"/><path d="M199.702,285.89v52.485c0,6.18-1.098,12.115-3.107,17.615l-5.95-21.17l-18.102-12.686V285.89H199.702z" opacity="0.5"/></g><g><g><path d="M105.067,130.895c-0.067,0.085-0.143,0.17-0.208,0.26c-2.965,3.885-4.75,8.72-4.75,13.979v109.55         c0,8.76,4.877,16.375,12.06,20.29c0.01,0.005,148.272,91.435,158.388,97.669c0.357,0.221,0.557,0.346,0.557,0.346         c0.65,0.444,1.32,0.859,2.016,1.245c3.712,2.545,8.199,4.034,13.037,4.034h103.215c12.75,0,23.09-10.335,23.09-23.085v-29.29         L105.067,130.895z" fill="#227E8C"/><path d="M412.472,245.635c0-8.755-4.877-16.37-12.06-20.285c-0.65-0.445-1.32-0.87-2.016-1.245         L239.455,126.09c-3.716-2.545-8.2-4.04-13.041-4.04H123.2c-7.368,0-13.908,3.47-18.133,8.845l307.404,195V245.635z" fill="#449CB0"/></g><g><path d="M412.477,245.635V355.19c0,12.755-10.34,23.085-23.093,23.085H286.17         c-12.75,0-23.085-10.33-23.085-23.085V245.635c0-12.755,10.335-23.09,23.085-23.09h103.214         C402.137,222.545,412.477,232.88,412.477,245.635z" fill="#7CB8C2"/><path d="M412.477,302.305v52.886c0,12.755-10.34,23.085-23.093,23.085h-47.425         c-1.234-0.325-1.939-0.5-1.939-0.5l-40.958-51.881L412.477,302.305z" opacity="0.2"/><path d="M415.977,303.78c-0.125-0.16-0.26-0.306-0.39-0.45c-0.025-0.035-30.76-35.575-30.78-35.6         c-9.542-11.57-23.987-18.94-40.157-18.94c-28.735,0-52.03,23.295-52.03,52.03c0,23.479,15.556,43.314,36.92,49.795         c0,0,45.798,13.92,45.987,13.979c3.631,1.15,7.498,1.78,11.513,1.78c20.982,0,37.993-17.01,37.993-37.995         C425.032,318.99,421.616,310.405,415.977,303.78z" fill="#227E8C"/><path d="M423.332,327.9c0,21.25-17.011,38.475-37.99,38.475c-20.985,0-37.992-17.225-37.992-38.475         c0-21.245,17.007-38.47,37.992-38.47C406.321,289.43,423.332,306.655,423.332,327.9z" fill="#0D2A30"/><path d="M425.032,328.38c0,20.985-17.011,37.995-37.993,37.995s-37.995-17.01-37.995-37.995         c0-20.979,17.013-37.99,37.995-37.99S425.032,307.4,425.032,328.38z" fill="#C2CFEA"/><path d="M418.502,328.38c0,1.811-0.16,3.57-0.476,5.285c-0.199,1.195-0.484,2.375-0.854,3.53         c-3.885,12.63-15.9,21.824-30.135,21.824c-17.37,0-31.455-13.715-31.455-30.64c0-1.41,0.095-2.81,0.3-4.18         c0.175-1.306,0.45-2.595,0.8-3.845c3.615-13.025,15.835-22.61,30.355-22.61C404.422,297.745,418.502,311.46,418.502,328.38z" fill="#173657"/><path d="M387.039,297.735c-2.332,0-4.603,0.255-6.792,0.725c14.112,3.03,24.675,15.271,24.675,29.92         c0,14.65-10.563,26.9-24.675,29.925c2.189,0.465,4.46,0.721,6.792,0.721c17.373,0,31.463-13.721,31.463-30.646         C418.502,311.46,404.412,297.735,387.039,297.735z" opacity="0.4"/><path d="M380.802,317.95c0,4.39-3.555,7.944-7.945,7.944c-4.385,0-7.939-3.555-7.939-7.944         c0-4.385,3.555-7.94,7.939-7.94C377.247,310.01,380.802,313.565,380.802,317.95z" fill="#C2CFEA"/></g></g></g></g></g></g></svg>