<?xml version="1.0" ?><!DOCTYPE svg  PUBLIC '-//W3C//DTD SVG 1.1//EN'  'http://www.w3.org/Graphics/SVG/1.1/DTD/svg11.dtd'><svg enable-background="new 0 0 512 512" height="512px" id="Layer_1" version="1.1" viewBox="0 0 512 512" width="512px" xml:space="preserve" xmlns="http://www.w3.org/2000/svg" xmlns:xlink="http://www.w3.org/1999/xlink"><g><polygon fill="#1799E2" points="196.865,233.815 311.135,233.815 254,134.855  "/><polygon fill="#1799E2" points="195.86,251.089 253.136,488.81 310.412,251.089  "/><polygon fill="#1799E2" points="184.015,251.089 48.114,251.089 238.382,476.735  "/><polygon fill="#1799E2" points="322.257,251.089 267.2,479.602 459.886,251.089  "/><polygon fill="#1799E2" points="187.171,227.575 247.283,123.457 129.606,123.457  "/><polygon fill="#1799E2" points="177.404,233.71 118.837,127.779 34.485,233.71  "/><polygon fill="#1799E2" points="330.387,233.71 473.794,233.71 389.479,128.152  "/><polygon fill="#1799E2" points="497.046,233.815 497.046,233.815 497.135,233.71  "/><polygon fill="#1799E2" points="342.775,134.775 319,178.247 295.225,134.775 274.531,123.457 260.717,123.457 320.725,227.396    378.911,123.457 363.469,123.457  "/><polygon fill="#4B4B4B" points="319,64.594 335.407,94.593 365.406,111 335.407,127.407 319,157.406 302.593,127.407 272.594,111    302.593,94.593  "/><polygon fill="#4B4B4B" points="358.496,30.946 367.125,46.723 382.902,55.352 367.125,63.98 358.496,79.757 349.867,63.98    334.09,55.352 349.867,46.723  "/></g></svg>